<svg width="212" height="64" viewBox="0 0 212 64" fill="none" xmlns="http://www.w3.org/2000/svg">
<path d="M24.4908 51.1458C24.2371 51.2181 23.8023 51.2542 23.1862 51.2542C22.4615 51.2542 21.6279 51.2 20.6857 51.0915C19.7435 51.0192 18.91 50.983 18.1852 50.983C16.9893 48.3074 15.7934 45.722 14.5975 43.2271C13.4379 40.696 12.4413 38.2735 11.6078 35.9593L11.0642 34.3322C10.9192 33.9345 10.7743 33.5729 10.6293 33.2475C10.5206 32.8859 10.43 32.7051 10.3575 32.7051C10.3212 32.7051 10.2669 33.139 10.1944 34.0068C10.1582 34.8746 10.122 35.9774 10.0857 37.3153C10.0495 38.6531 10.0133 40.1356 9.977 41.7627C9.977 43.3898 9.977 44.9627 9.977 46.4814C9.977 47.313 9.977 48.1265 9.977 48.922C9.977 49.6814 9.9951 50.3684 10.0314 50.983C9.63274 51.0915 9.23407 51.1638 8.83546 51.2C8.43684 51.2362 8.03817 51.2542 7.63956 51.2542C6.76982 51.2542 5.88197 51.2 4.97597 51.0915C4.10623 50.983 3.25461 50.9288 2.4211 50.9288V47.1322C2.4211 43.6972 2.38486 40.4248 2.31239 37.3153C2.27614 34.2057 2.25803 30.9514 2.25803 27.5525C2.25803 25.0576 2.29426 22.5989 2.36674 20.1763C2.43922 17.7175 2.56606 15.3311 2.74726 13.0169C3.10965 12.9446 3.49016 12.8904 3.8888 12.8542C4.32367 12.8181 4.75854 12.8 5.19341 12.8C5.41085 12.8 5.77325 12.8181 6.28058 12.8542C6.78792 12.8542 7.2953 12.8904 7.80264 12.9627C8.30997 12.9989 8.74484 13.0531 9.10725 13.1254C9.50587 13.1977 9.7052 13.2701 9.7052 13.3424C9.95889 13.9932 10.1944 14.5356 10.4119 14.9695C10.6293 15.4034 10.8286 15.8192 11.0098 16.2169C11.2273 16.6147 11.4447 17.0667 11.6621 17.5729C11.9158 18.043 12.2057 18.6576 12.5319 19.4169C12.6043 19.5977 12.7674 19.9413 13.0211 20.4475C13.2748 20.9537 13.5647 21.5503 13.8908 22.2373C14.217 22.8881 14.5612 23.5932 14.9237 24.3525C15.2861 25.0757 15.6122 25.7446 15.9021 26.3593C16.2283 26.9379 16.5001 27.4441 16.7175 27.878C16.9349 28.2757 17.0618 28.4746 17.098 28.4746C17.2067 28.4023 17.2974 28.0407 17.3698 27.3898C17.4423 26.739 17.4785 26.1062 17.4785 25.4915C17.4785 24.0452 17.4423 22.7074 17.3698 21.478C17.3336 20.2124 17.3155 18.9288 17.3155 17.6271C17.3155 16.8678 17.3155 16.1085 17.3155 15.3491C17.3517 14.5537 17.3879 13.704 17.4242 12.8C18.6563 12.583 19.9609 12.4746 21.338 12.4746C22.6789 12.4746 23.8748 12.583 24.9257 12.8V30.2644C24.962 31.783 24.9801 33.3198 24.9801 34.8746C24.9801 36.4294 24.9801 37.9842 24.9801 39.539C24.9801 40.5876 24.962 41.6 24.9257 42.5763C24.9257 43.5525 24.9257 44.5469 24.9257 45.5593C24.9257 46.2825 24.9257 47.0057 24.9257 47.7288C24.962 48.452 24.9801 49.1752 24.9801 49.8983V50.983C24.9076 51.0192 24.7445 51.0735 24.4908 51.1458ZM37.4308 37.5322C36.6335 37.496 36.0538 37.4418 35.6913 37.3695V38.3458C35.7276 39.4305 35.7638 40.3164 35.8001 41.0034C35.8725 41.6904 36.1081 42.3593 36.5067 43.0102C36.9416 43.8418 37.5577 44.4565 38.3549 44.8542C39.1522 45.252 39.9313 45.3785 40.6924 45.2339C41.4534 45.0892 42.0876 44.6553 42.5949 43.9322C43.1385 43.1729 43.3741 42.052 43.3016 40.5695C43.664 40.6057 44.1532 40.6237 44.7693 40.6237C45.3853 40.5876 46.0195 40.5514 46.6719 40.5153C47.3604 40.4791 48.0127 40.4791 48.6288 40.5153C49.2448 40.5153 49.7522 40.5695 50.1508 40.678C50.0784 41.6181 50.0059 42.5401 49.9334 43.4441C49.8609 44.348 49.7703 45.1977 49.6616 45.9932C49.5529 46.7525 49.4079 47.4214 49.2267 48C49.0818 48.5424 48.8825 48.922 48.6288 49.139C48.0127 50.0068 47.2154 50.6214 46.237 50.983C45.2585 51.3446 44.1894 51.5616 43.0298 51.6339C41.8702 51.7062 40.6743 51.7062 39.4421 51.6339C38.2462 51.5616 37.1409 51.5254 36.1262 51.5254C35.1115 51.3808 34.1693 51.0553 33.2995 50.5491C32.3211 49.8621 31.5057 48.9763 30.8534 47.8915C30.2011 46.7706 29.6756 45.5593 29.277 44.2576C28.8784 42.9198 28.6066 41.5096 28.4616 40.0271C28.3166 38.5447 28.2804 37.0621 28.3529 35.5797C28.4616 34.2418 28.5703 32.9582 28.679 31.7288C28.824 30.4633 29.1139 29.2339 29.5488 28.0407C30.0199 26.9921 30.7447 26.1062 31.7231 25.383C32.7016 24.6237 33.8069 24.0633 35.039 23.7017C36.2712 23.304 37.5758 23.087 38.9529 23.0508C40.33 23.0147 41.6708 23.1593 42.9754 23.4847C44.6425 23.774 45.9833 24.3525 46.998 25.2203C48.0127 26.0881 48.7738 27.1367 49.2811 28.3661C49.8247 29.5955 50.1508 30.9514 50.2595 32.4339C50.3683 33.9164 50.3683 35.4169 50.2595 36.9356C50.0059 37.0079 49.5166 37.0802 48.7919 37.1525C48.1033 37.2248 47.2698 37.2972 46.2913 37.3695C45.3491 37.4418 44.3344 37.496 43.2472 37.5322C42.1601 37.5684 41.1091 37.5864 40.0944 37.5864C39.116 37.5864 38.2281 37.5684 37.4308 37.5322ZM43.7908 30.4271C43.4284 29.7763 42.9211 29.2881 42.2688 28.9627C41.9789 28.7819 41.6889 28.6553 41.399 28.583C41.1091 28.4746 40.7648 28.4203 40.3662 28.4203C39.4965 28.4203 38.7898 28.5108 38.2462 28.6915C37.7026 28.8723 37.2678 29.1254 36.9416 29.4508C36.6154 29.7763 36.3618 30.1559 36.1806 30.5898C36.0356 31.0237 35.9269 31.4757 35.8544 31.9458C35.782 32.3435 35.7457 32.6328 35.7457 32.8136C35.782 32.9582 35.9631 33.0667 36.2893 33.139C36.6154 33.1752 37.1228 33.1932 37.8113 33.1932C38.5361 33.157 39.5871 33.139 40.9642 33.139C41.9064 33.139 42.613 33.157 43.0842 33.1932C43.5553 33.2294 43.8814 33.2475 44.0626 33.2475C44.2801 33.2113 44.3888 33.157 44.3888 33.0847C44.3888 32.9763 44.3888 32.7774 44.3888 32.4881C44.3888 31.765 44.1894 31.078 43.7908 30.4271ZM55.1869 23.9729C56.4915 23.8644 57.7233 23.8825 58.8833 24.0271C59.1366 25.3288 59.3904 26.8294 59.6443 28.5288C59.8976 30.1921 60.1515 31.8915 60.4053 33.6271C60.6951 35.3627 61.0033 37.026 61.3294 38.6169C61.6556 40.1718 62.0176 41.4915 62.4166 42.5763C62.8151 41.4915 63.1412 40.4791 63.3951 39.539C63.6484 38.5989 63.9022 37.5864 64.1561 36.5017C64.4094 35.3808 64.6633 34.1333 64.9171 32.7593C65.2069 31.3492 65.5694 29.6497 66.0043 27.661C66.0043 27.661 66.0402 27.4621 66.113 27.0644C66.2217 26.6667 66.312 26.2328 66.3848 25.7627C66.4571 25.2926 66.5294 24.8587 66.6022 24.461C66.6745 24.0633 66.711 23.8644 66.711 23.8644C67.3991 23.9367 67.9971 23.9548 68.5048 23.9186C69.012 23.8825 69.4833 23.8463 69.9181 23.8102C70.3889 23.774 70.8422 23.7559 71.2771 23.7559C71.712 23.7559 72.2012 23.8102 72.7448 23.9186C72.9981 25.2203 73.234 26.7209 73.4515 28.4203C73.7048 30.1198 73.9586 31.8373 74.2125 33.5729C74.5022 35.3085 74.8105 36.9718 75.1366 38.5627C75.4628 40.1537 75.8248 41.4915 76.2238 42.5763C76.6587 41.5277 77.075 40.1356 77.474 38.4C77.8725 36.6282 78.253 34.8203 78.6156 32.9763C78.9776 31.1322 79.3222 29.3966 79.6484 27.7695C80.0104 26.1424 80.3551 24.913 80.6812 24.0814C81.8407 24.0814 82.9458 24.0271 83.9971 23.9186C85.0479 23.8102 86.2981 23.8102 87.7479 23.9186C86.9869 25.9797 86.3161 28.1311 85.7366 30.3729C85.193 32.5785 84.6674 34.8384 84.1602 37.1525C83.6525 39.4667 83.1453 41.7989 82.6381 44.1492C82.1304 46.4633 81.5689 48.7593 80.953 51.0373C80.2279 51.1458 79.4489 51.2 78.6156 51.2C77.8181 51.2362 76.9848 51.2362 76.1151 51.2C75.2812 51.2 74.4479 51.1819 73.6146 51.1458C72.8171 51.1458 72.074 51.1458 71.3858 51.1458C71.0597 49.1932 70.715 47.1141 70.353 44.9085C70.0269 42.7028 69.6643 40.5876 69.2658 38.5627C68.831 40.5514 68.4863 42.6486 68.233 44.8542C68.0156 47.0237 67.653 49.0847 67.1458 51.0373C66.4207 51.1458 65.6053 51.2 64.6997 51.2C63.8299 51.2362 62.9238 51.2362 61.9817 51.2C61.0756 51.2 60.1694 51.1819 59.2638 51.1458C58.394 51.1458 57.6145 51.1458 56.9263 51.1458C56.2012 46.626 55.3679 42.0158 54.4258 37.3153C53.4834 32.6147 52.4325 28.1311 51.2729 23.8644C52.5775 24.0091 53.8821 24.0452 55.1869 23.9729ZM109.864 26.9559C110.588 28.5108 110.951 30.2644 110.951 32.2169C109.791 32.3977 108.505 32.5062 107.092 32.5424C105.714 32.5785 104.409 32.4701 103.178 32.2169C103.286 31.7831 103.232 31.3492 103.015 30.9153C102.833 30.4814 102.543 30.1017 102.145 29.7763C101.782 29.4508 101.347 29.2158 100.84 29.0712C100.369 28.8904 99.8977 28.8181 99.4269 28.8542C98.593 28.9989 97.9592 29.3243 97.5243 29.8305C97.1254 30.3006 96.9264 30.8248 96.9264 31.4034C96.9264 31.9819 97.1438 32.5604 97.5787 33.139C98.0136 33.7175 98.6474 34.1514 99.4813 34.4407C101.51 34.7299 103.413 35.1277 105.189 35.6339C106.964 36.104 108.269 36.8814 109.103 37.9661C109.9 39.2678 110.389 40.6057 110.57 41.9797C110.752 43.3175 110.498 44.9808 109.809 46.9695C108.976 48.7413 107.671 50.0068 105.896 50.7661C104.12 51.5254 102.181 51.887 100.079 51.8508C98.231 51.9231 96.5638 51.7604 95.0782 51.3627C93.592 50.965 92.3059 50.3684 91.2187 49.5729C90.1674 48.7774 89.3341 47.8011 88.7182 46.6441C88.1382 45.487 87.8484 44.1853 87.8484 42.739V42.5763V42.4678C89.0443 42.3231 90.4033 42.287 91.9254 42.3593C93.4474 42.3955 94.77 42.4136 95.8936 42.4136C95.9295 43.2452 96.31 43.9322 97.0351 44.4746C97.7961 44.9808 98.593 45.2881 99.4269 45.3966C100.26 45.4689 101.021 45.3062 101.71 44.9085C102.398 44.5108 102.724 43.7876 102.688 42.739C102.797 41.8712 102.598 41.2203 102.09 40.7864C101.583 40.3525 100.913 40.0271 100.079 39.8102C99.2453 39.557 98.3033 39.3401 97.2526 39.1593C96.2012 38.9785 95.1684 38.6712 94.1541 38.2373C92.1243 37.5503 90.6387 36.4836 89.6966 35.0373C88.7905 33.5548 88.3556 32.0362 88.392 30.4814C88.4643 28.8904 88.9715 27.426 89.9141 26.0881C90.8926 24.7503 92.2695 23.8463 94.0454 23.3763C94.7336 23.1955 95.5674 23.0508 96.5459 22.9424C97.5602 22.8339 98.6295 22.7797 99.7531 22.7797C100.876 22.7797 102 22.852 103.123 22.9966C104.246 23.1051 105.279 23.2678 106.222 23.4847C107.925 24.2079 109.139 25.365 109.864 26.9559ZM136.727 50.7119C136.727 50.748 136.655 50.7661 136.51 50.7661L115.854 51.0373H113.407C113.372 51.0011 113.353 50.9469 113.353 50.8746C113.462 49.6452 113.498 48.4339 113.462 47.2407C113.462 46.0475 113.498 44.8904 113.571 43.7695C113.643 42.6124 113.788 41.5096 114.005 40.461C114.259 39.3763 114.676 38.3638 115.256 37.4237C116.125 36.4475 117.032 35.6158 117.974 34.9288C118.952 34.2057 119.931 33.5367 120.909 32.922C121.924 32.3074 122.92 31.7108 123.899 31.1322C124.914 30.5537 125.892 29.8847 126.834 29.1254C127.559 28.6553 128.066 28.0045 128.356 27.1729C128.682 26.3413 128.81 25.5096 128.737 24.678C128.664 23.8463 128.375 23.1231 127.867 22.5085C127.396 21.8576 126.744 21.478 125.91 21.3695C125.04 21.3695 124.334 21.5864 123.79 22.0203C123.283 22.4542 122.884 23.0147 122.594 23.7017C122.341 24.3525 122.159 25.0576 122.051 25.8169C121.978 26.5763 121.924 27.2814 121.887 27.9322V28.0407H121.833C120.202 28.2214 118.753 28.348 117.484 28.4203C116.253 28.4926 115.02 28.4565 113.788 28.3119H113.734V28.2034C113.299 25.7085 113.299 23.3763 113.734 21.2068C114.205 19.0011 115.111 17.157 116.452 15.6746C117.177 14.7345 118.21 14.0113 119.55 13.5051C120.891 12.9989 122.322 12.6735 123.844 12.5288C125.366 12.3842 126.853 12.4023 128.302 12.583C129.788 12.7277 131.02 12.9989 131.998 13.3966C133.629 14.2282 134.879 15.4576 135.749 17.0847C136.619 18.7119 137.144 20.5017 137.325 22.4542C137.362 23.2136 137.398 24.0452 137.434 24.9492C137.471 25.8169 137.471 26.6124 137.434 27.3356C137.325 28.6735 136.981 29.8124 136.401 30.7525C135.858 31.6565 135.17 32.452 134.336 33.139C133.539 33.826 132.633 34.4226 131.618 34.9288C130.639 35.435 129.643 35.9413 128.628 36.4475C127.65 36.9537 126.69 37.496 125.747 38.0746C124.841 38.6169 124.062 39.2859 123.41 40.0814C123.337 40.2621 123.229 40.5153 123.083 40.8407C122.975 41.1661 122.866 41.4915 122.757 41.8169C122.685 42.1424 122.631 42.4497 122.594 42.739C122.594 42.9921 122.667 43.1548 122.812 43.2271C125.24 43.2994 127.486 43.2994 129.552 43.2271C131.654 43.1548 133.883 43.1186 136.238 43.1186C136.529 43.8418 136.673 44.6735 136.673 45.6136C136.673 46.5175 136.655 47.4214 136.619 48.3254C136.619 48.7231 136.601 49.1209 136.564 49.5186C136.564 49.9164 136.619 50.3141 136.727 50.7119ZM140.753 27.878C140.97 27.1909 141.133 26.6486 141.242 26.2508C141.496 25.7085 141.894 25.2384 142.438 24.8407C143.018 24.443 143.67 24.1175 144.395 23.8644C145.156 23.5752 145.953 23.3763 146.787 23.2678C147.656 23.1593 148.526 23.1051 149.396 23.1051C150.12 23.1774 150.809 23.1955 151.461 23.1593C152.15 23.087 152.875 23.087 153.636 23.1593C154.795 23.2316 155.901 23.4667 156.952 23.8644C158.003 24.226 158.909 24.7684 159.67 25.4915C160.177 25.8169 160.576 26.3413 160.866 27.0644C161.155 27.7876 161.373 28.6373 161.518 29.6136C161.663 30.5537 161.753 31.6023 161.79 32.7593C161.826 33.8802 161.862 35.0373 161.898 36.2305C161.862 37.2791 161.808 38.4723 161.735 39.8102C161.699 41.148 161.609 42.4316 161.464 43.661C161.355 44.8904 161.192 45.9932 160.974 46.9695C160.793 47.9458 160.522 48.6147 160.159 48.9763C159.543 49.8441 158.728 50.4587 157.713 50.8203C156.734 51.1819 155.665 51.3989 154.506 51.4712C153.346 51.5797 152.15 51.5797 150.918 51.4712C149.686 51.3989 148.563 51.3627 147.548 51.3627C145.699 51.0373 144.141 50.2418 142.873 48.9763C141.894 48.1085 141.224 47.0237 140.861 45.722C140.499 44.4203 140.281 43.0644 140.209 41.6542C140.137 40.2079 140.118 38.7616 140.155 37.3153C140.227 35.8689 140.209 34.5492 140.1 33.3559C140.1 32.7051 140.118 32.0723 140.155 31.4576C140.191 30.8068 140.264 30.1379 140.372 29.4508C140.409 29.0531 140.535 28.5288 140.753 27.878ZM149.885 31.4576C149.124 31.6746 148.508 32.0723 148.037 32.6508C147.819 32.7955 147.656 33.157 147.548 33.7356C147.403 34.8926 147.33 36.0497 147.33 37.2068C147.33 38.3277 147.294 39.5209 147.221 40.7864C147.185 41.6181 147.403 42.2689 147.874 42.739C148.345 43.1729 148.907 43.4802 149.559 43.661C150.248 43.8057 150.954 43.8418 151.679 43.7695C152.404 43.661 153.001 43.4802 153.473 43.2271C154.089 42.9379 154.506 42.3413 154.723 41.4373C154.868 40.2802 154.977 39.1231 155.049 37.9661C155.158 36.7729 155.104 35.652 154.886 34.6034C154.705 33.3379 154.179 32.4158 153.31 31.8373C152.44 31.2587 151.298 31.1322 149.885 31.4576ZM165.119 27.878C165.336 27.1909 165.499 26.6486 165.608 26.2508C165.862 25.7085 166.26 25.2384 166.804 24.8407C167.384 24.443 168.036 24.1175 168.761 23.8644C169.522 23.5752 170.319 23.3763 171.152 23.2678C172.022 23.1593 172.892 23.1051 173.762 23.1051C174.487 23.1774 175.175 23.1955 175.827 23.1593C176.516 23.087 177.241 23.087 178.002 23.1593C179.162 23.2316 180.267 23.4667 181.318 23.8644C182.369 24.226 183.275 24.7684 184.036 25.4915C184.543 25.8169 184.942 26.3413 185.231 27.0644C185.522 27.7876 185.739 28.6373 185.884 29.6136C186.029 30.5537 186.12 31.6023 186.156 32.7593C186.192 33.8802 186.228 35.0373 186.264 36.2305C186.228 37.2791 186.174 38.4723 186.101 39.8102C186.065 41.148 185.975 42.4316 185.829 43.661C185.721 44.8904 185.558 45.9932 185.34 46.9695C185.159 47.9458 184.887 48.6147 184.525 48.9763C183.909 49.8441 183.094 50.4587 182.079 50.8203C181.1 51.1819 180.031 51.3989 178.871 51.4712C177.712 51.5797 176.516 51.5797 175.284 51.4712C174.052 51.3989 172.928 51.3627 171.914 51.3627C170.065 51.0373 168.507 50.2418 167.239 48.9763C166.26 48.1085 165.59 47.0237 165.227 45.722C164.865 44.4203 164.648 43.0644 164.575 41.6542C164.503 40.2079 164.485 38.7616 164.521 37.3153C164.594 35.8689 164.575 34.5492 164.466 33.3559C164.466 32.7051 164.485 32.0723 164.521 31.4576C164.557 30.8068 164.629 30.1379 164.738 29.4508C164.775 29.0531 164.901 28.5288 165.119 27.878ZM174.251 31.4576C173.49 31.6746 172.874 32.0723 172.403 32.6508C172.185 32.7955 172.022 33.157 171.914 33.7356C171.769 34.8926 171.696 36.0497 171.696 37.2068C171.696 38.3277 171.66 39.5209 171.587 40.7864C171.551 41.6181 171.769 42.2689 172.24 42.739C172.711 43.1729 173.272 43.4802 173.925 43.661C174.614 43.8057 175.32 43.8418 176.045 43.7695C176.77 43.661 177.368 43.4802 177.839 43.2271C178.455 42.9379 178.871 42.3413 179.089 41.4373C179.234 40.2802 179.343 39.1231 179.415 37.9661C179.524 36.7729 179.469 35.652 179.252 34.6034C179.071 33.3379 178.545 32.4158 177.676 31.8373C176.806 31.2587 175.664 31.1322 174.251 31.4576ZM196.66 25.4373C196.66 25.835 196.678 26.287 196.714 26.7932C196.896 26.6847 197.113 26.5582 197.367 26.4136C197.657 26.2689 197.892 26.1243 198.073 25.9797C198.834 25.4373 199.686 25.0034 200.628 24.678C201.571 24.3525 202.531 24.1718 203.509 24.1356C204.524 24.0994 205.502 24.2079 206.445 24.461C207.387 24.7141 208.238 25.1661 208.999 25.8169C209.362 26.1424 209.634 26.8294 209.815 27.878C210.032 28.8904 210.159 30.1198 210.195 31.5661C210.268 33.0124 210.286 34.6034 210.25 36.339C210.25 38.0384 210.232 39.774 210.195 41.5458C210.159 43.2814 210.123 44.9627 210.087 46.5898C210.051 48.2169 210.069 49.6452 210.141 50.8746C208.873 51.0553 207.731 51.1277 206.716 51.0915C205.738 51.0915 204.615 51.0915 203.346 51.0915C203.274 50.2599 203.237 49.3198 203.237 48.2712C203.237 47.2226 203.237 46.1379 203.237 45.0169C203.274 43.896 203.274 42.7752 203.237 41.6542C203.237 40.5333 203.201 39.4847 203.129 38.5085C203.093 38.0746 203.056 37.6045 203.02 37.0983C202.984 36.5559 202.911 36.0316 202.802 35.5254C202.73 35.0192 202.604 34.5672 202.422 34.1695C202.277 33.7718 202.06 33.4644 201.77 33.2475C201.734 33.2113 201.697 33.1932 201.661 33.1932C201.625 33.1932 201.589 33.1752 201.552 33.139C201.262 32.9943 200.828 32.8859 200.248 32.8136C199.704 32.7051 199.16 32.7413 198.617 32.922C198.073 33.0667 197.584 33.3921 197.149 33.8983C196.714 34.3684 196.461 35.0915 196.388 36.0678C196.316 37.3333 196.298 38.5808 196.334 39.8102C196.37 41.0034 196.407 42.2147 196.442 43.4441C196.515 44.6373 196.551 45.8305 196.551 47.0237C196.551 48.2169 196.479 49.4102 196.334 50.6034V50.8203C195.718 51.0011 195.174 51.1096 194.703 51.1458C194.268 51.1819 193.815 51.1819 193.344 51.1458C192.873 51.1458 192.348 51.1277 191.768 51.0915C191.188 51.0553 190.463 51.0735 189.593 51.1458C189.593 46.6983 189.539 42.2508 189.43 37.8034C189.358 33.3559 189.394 28.7458 189.539 23.9729C189.974 24.0091 190.336 24.0452 190.626 24.0814C190.916 24.0814 191.188 24.0814 191.441 24.0814C191.695 24.0814 191.967 24.0814 192.257 24.0814C192.547 24.0452 192.909 24.0091 193.344 23.9729C193.489 23.9729 193.743 23.9548 194.105 23.9186C194.468 23.8463 194.83 23.7921 195.192 23.7559C195.555 23.7198 195.881 23.7198 196.171 23.7559C196.461 23.7559 196.606 23.8102 196.606 23.9186C196.678 24.5333 196.696 25.0396 196.66 25.4373Z" fill="#5046E4"/>
<path d="M151.933 40.678C153.284 40.678 154.379 39.3424 154.379 37.6949C154.379 36.0474 153.284 34.7119 151.933 34.7119C150.582 34.7119 149.487 36.0474 149.487 37.6949C149.487 39.3424 150.582 40.678 151.933 40.678Z" fill="#222222"/>
<path d="M174.221 40.678C175.571 40.678 176.667 39.3424 176.667 37.6949C176.667 36.0474 175.571 34.7119 174.221 34.7119C172.87 34.7119 171.774 36.0474 171.774 37.6949C171.774 39.3424 172.87 40.678 174.221 40.678Z" fill="#222222"/>
</svg>
